
<svg width="515" height="515" viewBox="0 0 515 515" fill="none" xmlns="http://www.w3.org/2000/svg">
<path d="M365.305 238.569C361.701 227.38 349.659 221.216 338.375 224.82L278.825 244.164V181.39C278.825 169.632 269.248 160.055 257.49 160.055C245.732 160.055 236.154 169.632 236.154 181.39V243.784L176.7 224.44C165.511 220.837 153.468 226.906 149.77 238.19C146.167 249.379 152.235 261.422 163.519 265.12L221.931 284.085L185.045 334.815C178.122 344.393 180.209 357.763 189.786 364.685C199.363 371.607 212.638 369.521 219.655 359.944L256.542 309.118L293.713 360.228C300.635 369.805 314.005 371.891 323.582 364.969C333.159 358.047 335.245 344.677 328.323 335.1L291.816 284.938L351.745 265.499C362.934 261.896 369.098 249.853 365.494 238.569H365.305Z" fill="black"/>
<path d="M257.505 201.303C310.606 201.303 353.656 158.253 353.656 105.151C353.656 52.0499 310.606 8.99988 257.505 8.99988C204.403 8.99988 161.354 52.0499 161.354 105.151C161.354 158.253 204.403 201.303 257.505 201.303Z" fill="#369736"/>
<path d="M97.1512 318.503C150.253 318.503 193.303 275.453 193.303 222.351C193.303 169.25 150.253 126.2 97.1512 126.2C44.0499 126.2 1 169.25 1 222.351C1 275.453 44.0499 318.503 97.1512 318.503Z" fill="#9E2B94"/>
<path d="M417.849 318.503C470.95 318.503 514 275.453 514 222.351C514 169.25 470.95 126.2 417.849 126.2C364.747 126.2 321.697 169.25 321.697 222.351C321.697 275.453 364.747 318.503 417.849 318.503Z" fill="#D33B3B"/>
<path d="M152.161 506.828C205.263 506.828 248.313 463.778 248.313 410.676C248.313 357.575 205.263 314.525 152.161 314.525C99.0599 314.525 56.0098 357.575 56.0098 410.676C56.0098 463.778 99.0599 506.828 152.161 506.828Z" fill="#F54E4E"/>
<path d="M362.839 506.828C415.94 506.828 458.99 463.778 458.99 410.676C458.99 357.575 415.94 314.525 362.839 314.525C309.738 314.525 266.688 357.575 266.688 410.676C266.688 463.778 309.738 506.828 362.839 506.828Z" fill="#1C6DCD"/>
<rect x="0.5" y="0.5" width="514" height="514" stroke="#ADADAD"/>
</svg>
