<svg width="167" height="86" viewBox="0 0 167 86" fill="none" xmlns="http://www.w3.org/2000/svg">
<path d="M36.4023 26.3618L39.4769 10.9069H33.3821L34.1167 7.3153H50.7144L49.9797 10.9069H43.9121L40.8102 26.3618H36.4023ZM60.1124 26.6883C58.1896 26.6883 56.5299 26.3437 55.1331 25.6544C53.7545 24.9469 52.6934 23.9765 51.9496 22.743C51.2059 21.4914 50.8341 20.0493 50.8341 18.4167C50.8341 16.7841 51.1152 15.2786 51.6776 13.9C52.2399 12.5032 53.038 11.2969 54.072 10.2811C55.1241 9.24717 56.3666 8.43996 57.7996 7.85949C59.2508 7.27903 60.8562 6.98879 62.6157 6.98879C64.5385 6.98879 66.1892 7.34251 67.5678 8.04996C68.9645 8.73926 70.0348 9.70972 70.7785 10.9614C71.5222 12.1948 71.8941 13.6279 71.8941 15.2604C71.8941 16.893 71.6129 18.4076 71.0506 19.8044C70.4883 21.183 69.681 22.3893 68.629 23.4232C67.595 24.439 66.3524 25.2372 64.9013 25.8176C63.4683 26.3981 61.872 26.6883 60.1124 26.6883ZM60.4934 22.9334C61.5636 22.9334 62.525 22.743 63.3776 22.362C64.2483 21.963 64.9829 21.4188 65.5815 20.7295C66.1801 20.0402 66.6336 19.2511 66.942 18.3623C67.2685 17.4553 67.4317 16.503 67.4317 15.5053C67.4317 14.562 67.2322 13.7367 66.8331 13.0293C66.4341 12.3037 65.8445 11.7414 65.0645 11.3423C64.3027 10.9432 63.3594 10.7437 62.2348 10.7437C61.1645 10.7437 60.2031 10.9432 59.3506 11.3423C58.498 11.7232 57.7634 12.2583 57.1466 12.9476C56.548 13.6369 56.0855 14.4351 55.759 15.342C55.4506 16.2309 55.2964 17.1741 55.2964 18.1718C55.2964 19.1151 55.4959 19.9495 55.895 20.6751C56.3122 21.3825 56.9017 21.9358 57.6636 22.3348C58.4436 22.7339 59.3869 22.9334 60.4934 22.9334ZM79.3154 22.0083L79.914 16.893L90.7433 7.3153H96.0763L86.0361 16.1583L83.1247 18.6344L79.3154 22.0083ZM74.4177 26.3618L78.227 7.3153H82.6077L78.7984 26.3618H74.4177ZM87.7231 26.3618L82.2812 18.063L85.4103 15.0972L92.6752 26.3618H87.7231ZM99.1095 26.3618L100.66 18.5255L101.15 21.3009L95.5451 7.3153H99.953L104.225 18.0086L101.558 18.0358L110.184 7.3153H114.728L103.572 21.3281L105.068 18.5255L103.517 26.3618H99.1095ZM123.04 26.6883C121.118 26.6883 119.458 26.3437 118.061 25.6544C116.682 24.9469 115.621 23.9765 114.878 22.743C114.134 21.4914 113.762 20.0493 113.762 18.4167C113.762 16.7841 114.043 15.2786 114.605 13.9C115.168 12.5032 115.966 11.2969 117 10.2811C118.052 9.24717 119.295 8.43996 120.728 7.85949C122.179 7.27903 123.784 6.98879 125.544 6.98879C127.466 6.98879 129.117 7.34251 130.496 8.04996C131.892 8.73926 132.963 9.70972 133.706 10.9614C134.45 12.1948 134.822 13.6279 134.822 15.2604C134.822 16.893 134.541 18.4076 133.978 19.8044C133.416 21.183 132.609 22.3893 131.557 23.4232C130.523 24.439 129.28 25.2372 127.829 25.8176C126.396 26.3981 124.8 26.6883 123.04 26.6883ZM123.421 22.9334C124.491 22.9334 125.453 22.743 126.305 22.362C127.176 21.963 127.911 21.4188 128.509 20.7295C129.108 20.0402 129.561 19.2511 129.87 18.3623C130.196 17.4553 130.36 16.503 130.36 15.5053C130.36 14.562 130.16 13.7367 129.761 13.0293C129.362 12.3037 128.772 11.7414 127.992 11.3423C127.231 10.9432 126.287 10.7437 125.163 10.7437C124.092 10.7437 123.131 10.9432 122.278 11.3423C121.426 11.7232 120.691 12.2583 120.075 12.9476C119.476 13.6369 119.013 14.4351 118.687 15.342C118.378 16.2309 118.224 17.1741 118.224 18.1718C118.224 19.1151 118.424 19.9495 118.823 20.6751C119.24 21.3825 119.83 21.9358 120.591 22.3348C121.371 22.7339 122.315 22.9334 123.421 22.9334Z" fill="white"/>
<path d="M81.034 51.7498C79.8526 51.7498 78.7909 51.5742 77.849 51.223C76.907 50.8717 76.1647 50.3768 75.6219 49.7382C75.095 49.0837 74.8316 48.3014 74.8316 47.3914C74.8316 46.3537 75.119 45.4596 75.6937 44.7093C76.2684 43.943 77.0587 43.2724 78.0645 42.6977C79.0863 42.107 80.2437 41.5801 81.5369 41.1172C82.6065 40.718 83.4128 40.3668 83.9556 40.0635C84.5143 39.7601 84.8895 39.4807 85.0811 39.2253C85.2886 38.9539 85.3924 38.6745 85.3924 38.3871C85.3924 38.0998 85.2807 37.8683 85.0571 37.6927C84.8336 37.5011 84.5383 37.4053 84.1711 37.4053C83.6762 37.4053 83.2691 37.541 82.9498 37.8124C82.6464 38.0838 82.4948 38.451 82.4948 38.914C82.4948 39.2014 82.5906 39.5047 82.7821 39.824C82.9737 40.1273 83.309 40.5424 83.7879 41.0693L91.0679 48.924L88.0506 51.7019L79.8845 42.8174C79.3736 42.2586 78.9825 41.6999 78.7111 41.1411C78.4556 40.5823 78.3279 39.9916 78.3279 39.369C78.3279 38.3153 78.5993 37.4213 79.1421 36.6869C79.7009 35.9525 80.4353 35.3937 81.3453 35.0106C82.2713 34.6114 83.2691 34.4119 84.3387 34.4119C85.2807 34.4119 86.1188 34.5476 86.8532 34.819C87.5876 35.0904 88.1623 35.4975 88.5774 36.0403C89.0085 36.5831 89.224 37.2377 89.224 38.004C89.224 38.93 88.9526 39.7362 88.4098 40.4227C87.867 41.0932 87.1246 41.6839 86.1827 42.1948C85.2407 42.7057 84.1551 43.1846 82.9258 43.6316C82.2234 43.903 81.6007 44.1904 81.0579 44.4937C80.5151 44.7811 80.1 45.0924 79.8127 45.4277C79.5253 45.763 79.3816 46.1621 79.3816 46.6251C79.3816 47.088 79.5732 47.4792 79.9563 47.7985C80.3555 48.1178 80.9542 48.2774 81.7524 48.2774C82.6145 48.2774 83.4686 48.0539 84.3148 47.6069C85.1609 47.1439 85.9512 46.4734 86.6856 45.5953C87.42 44.7173 88.0266 43.6556 88.5056 42.4103L91.954 43.5119C91.2675 45.1723 90.3815 46.6251 89.2958 47.8703C88.2102 49.0996 86.965 50.0575 85.56 50.744C84.1711 51.4146 82.6624 51.7498 81.034 51.7498Z" fill="white"/>
<path d="M6.50012 78.4673L8.05105 70.631L8.54082 73.4064L2.9357 59.4208H7.34361L11.6155 70.114L8.94896 70.1412L17.5743 59.4208H22.1183L10.9624 73.4336L12.459 70.631L10.908 78.4673H6.50012ZM15.1204 78.4673L27.419 59.4208H31.7997L36.4797 78.4673H32.0718L28.3713 61.5975H30.1127L19.8276 78.4673H15.1204ZM20.2085 74.3859L22.0043 71.0391H31.8269L32.3439 74.3859H20.2085ZM37.0953 78.4673L40.9046 59.4208H44.4962L49.9109 72.9166L48.0062 72.8894L58.5634 59.4208H62.3455L58.5634 78.4673H54.4276L56.9581 65.7061H57.8016L49.3939 76.4538H47.4348L42.9453 65.6789L43.7616 65.7605L41.2311 78.4673H37.0953ZM59.2186 78.4673L71.5172 59.4208H75.8979L80.5779 78.4673H76.17L72.4695 61.5975H74.2109L63.9258 78.4673H59.2186ZM64.3067 74.3859L66.1025 71.0391H75.9251L76.4421 74.3859H64.3067ZM81.1935 78.4673L85.0028 59.4208H88.6488L96.8388 73.2159L95.3967 73.1343L98.1177 59.4208H102.471L98.6619 78.4673H95.043L86.8258 64.6722L88.2951 64.7538L85.547 78.4673H81.1935ZM99.3045 78.4673L111.603 59.4208H115.984L120.664 78.4673H116.256L112.555 61.5975H114.297L104.012 78.4673H99.3045ZM104.393 74.3859L106.188 71.0391H116.011L116.528 74.3859H104.393ZM127.918 78.7938C126.884 78.7938 125.878 78.694 124.898 78.4945C123.937 78.3131 123.057 78.0591 122.259 77.7326C121.479 77.4061 120.817 77.0524 120.273 76.6715L122.068 73.2703C122.667 73.6875 123.302 74.0503 123.973 74.3587C124.662 74.6489 125.379 74.8757 126.123 75.0389C126.866 75.184 127.61 75.2566 128.354 75.2566C129.17 75.2566 129.868 75.1659 130.449 74.9845C131.048 74.8031 131.501 74.5491 131.809 74.2226C132.136 73.8961 132.299 73.4971 132.299 73.0254C132.299 72.5901 132.127 72.2364 131.782 71.9643C131.438 71.6922 130.984 71.4654 130.422 71.284C129.878 71.0845 129.27 70.894 128.599 70.7126C127.928 70.5312 127.247 70.3226 126.558 70.0868C125.887 69.8329 125.27 69.5245 124.708 69.1617C124.164 68.7808 123.719 68.3001 123.374 67.7196C123.03 67.1391 122.858 66.4136 122.858 65.5429C122.858 64.2368 123.211 63.1031 123.919 62.1417C124.644 61.1803 125.66 60.4366 126.966 59.9105C128.272 59.3664 129.805 59.0943 131.564 59.0943C132.852 59.0943 134.068 59.2394 135.211 59.5296C136.353 59.8017 137.333 60.2008 138.149 60.7268L136.489 64.1008C135.764 63.611 134.957 63.2482 134.068 63.0124C133.179 62.7584 132.263 62.6315 131.32 62.6315C130.467 62.6315 129.732 62.7312 129.116 62.9308C128.517 63.1303 128.054 63.4115 127.728 63.7743C127.42 64.1189 127.265 64.518 127.265 64.9715C127.265 65.425 127.429 65.7968 127.755 66.0871C128.1 66.3591 128.553 66.595 129.116 66.7945C129.678 66.9759 130.295 67.1573 130.966 67.3387C131.637 67.5201 132.308 67.7287 132.979 67.9645C133.651 68.2003 134.267 68.4996 134.83 68.8624C135.392 69.2252 135.845 69.6878 136.19 70.2501C136.535 70.7943 136.707 71.4836 136.707 72.318C136.707 73.624 136.344 74.7668 135.619 75.7464C134.893 76.7078 133.868 77.4605 132.544 78.0047C131.238 78.5308 129.696 78.7938 127.918 78.7938ZM154.14 59.4208H158.548L154.739 78.4673H150.331L154.14 59.4208ZM141.705 78.4673H137.27L141.079 59.4208H145.515L141.705 78.4673ZM152.235 70.6582H142.957L143.692 66.9305H152.97L152.235 70.6582ZM157.884 78.4673L161.694 59.4208H166.129L162.319 78.4673H157.884Z" fill="white"/>
</svg>
