<svg width="379" height="43" viewBox="0 0 379 43" fill="none" xmlns="http://www.w3.org/2000/svg">
<path d="M7.54678 33.4094L11.443 13.8248H3.7195L4.65046 9.27342H25.6833L24.7523 13.8248H17.0633L13.1325 33.4094H7.54678ZM40.0062 33.8232C37.5696 33.8232 35.4663 33.3864 33.6964 32.5129C31.9494 31.6165 30.6046 30.3867 29.6622 28.8236C28.7197 27.2375 28.2485 25.4101 28.2485 23.3413C28.2485 21.2725 28.6048 19.3646 29.3174 17.6176C30.03 15.8476 31.0414 14.319 32.3516 13.0317C33.6849 11.7215 35.2594 10.6986 37.0754 9.96302C38.9143 9.22745 40.9486 8.85966 43.1784 8.85966C45.6149 8.85966 47.7067 9.3079 49.4537 10.2044C51.2237 11.0779 52.5799 12.3077 53.5224 13.8937C54.4648 15.4568 54.936 17.2728 54.936 19.3416C54.936 21.4104 54.5797 23.3298 53.8672 25.0997C53.1546 26.8467 52.1317 28.3753 50.7984 29.6856C49.4882 30.9728 47.9136 31.9843 46.0747 32.7198C44.2587 33.4554 42.2359 33.8232 40.0062 33.8232ZM40.4889 29.0649C41.8451 29.0649 43.0634 28.8236 44.1438 28.3409C45.2472 27.8352 46.1781 27.1456 46.9367 26.2721C47.6952 25.3986 48.2699 24.3987 48.6607 23.2723C49.0744 22.123 49.2813 20.9162 49.2813 19.6519C49.2813 18.4566 49.0285 17.4107 48.5228 16.5142C48.017 15.5948 47.27 14.8822 46.2816 14.3765C45.3161 13.8708 44.1208 13.6179 42.6956 13.6179C41.3394 13.6179 40.1211 13.8708 39.0408 14.3765C37.9604 14.8592 37.0294 15.5373 36.2479 16.4108C35.4893 17.2843 34.9032 18.2957 34.4894 19.445C34.0986 20.5714 33.9032 21.7667 33.9032 23.0309C33.9032 24.2262 34.1561 25.2836 34.6618 26.2031C35.1905 27.0996 35.9376 27.8007 36.903 28.3064C37.8914 28.8121 39.0867 29.0649 40.4889 29.0649ZM66.7541 27.8926L67.5126 21.4104L81.2357 9.27342H87.9937L75.2706 20.4794L71.5813 23.6171L66.7541 27.8926ZM60.5477 33.4094L65.3749 9.27342H70.9261L66.0989 33.4094H60.5477ZM77.4084 33.4094L70.5124 22.893L74.4776 19.1347L83.6837 33.4094H77.4084ZM94.251 33.4094L96.2164 23.4792L96.837 26.9961L89.7342 9.27342H95.3199L100.733 22.8241L97.3542 22.8585L108.284 9.27342H114.043L99.9058 27.0306L101.802 23.4792L99.8368 33.4094H94.251ZM126.99 33.8232C124.553 33.8232 122.45 33.3864 120.68 32.5129C118.933 31.6165 117.589 30.3867 116.646 28.8236C115.704 27.2375 115.232 25.4101 115.232 23.3413C115.232 21.2725 115.589 19.3646 116.301 17.6176C117.014 15.8476 118.025 14.319 119.336 13.0317C120.669 11.7215 122.243 10.6986 124.059 9.96302C125.898 9.22745 127.933 8.85966 130.162 8.85966C132.599 8.85966 134.691 9.3079 136.438 10.2044C138.208 11.0779 139.564 12.3077 140.506 13.8937C141.449 15.4568 141.92 17.2728 141.92 19.3416C141.92 21.4104 141.564 23.3298 140.851 25.0997C140.138 26.8467 139.116 28.3753 137.782 29.6856C136.472 30.9728 134.897 31.9843 133.059 32.7198C131.243 33.4554 129.22 33.8232 126.99 33.8232ZM127.473 29.0649C128.829 29.0649 130.047 28.8236 131.128 28.3409C132.231 27.8352 133.162 27.1456 133.921 26.2721C134.679 25.3986 135.254 24.3987 135.645 23.2723C136.058 22.123 136.265 20.9162 136.265 19.6519C136.265 18.4566 136.012 17.4107 135.507 16.5142C135.001 15.5948 134.254 14.8822 133.265 14.3765C132.3 13.8708 131.105 13.6179 129.68 13.6179C128.323 13.6179 127.105 13.8708 126.025 14.3765C124.944 14.8592 124.013 15.5373 123.232 16.4108C122.473 17.2843 121.887 18.2957 121.473 19.445C121.083 20.5714 120.887 21.7667 120.887 23.0309C120.887 24.2262 121.14 25.2836 121.646 26.2031C122.174 27.0996 122.921 27.8007 123.887 28.3064C124.875 28.8121 126.071 29.0649 127.473 29.0649Z" fill="white"/>
<path d="M175.483 33.8921C173.782 33.8921 172.254 33.6393 170.898 33.1336C169.541 32.6279 168.472 31.9153 167.691 30.9958C166.932 30.0534 166.553 28.927 166.553 27.6168C166.553 26.1227 166.967 24.8354 167.794 23.755C168.622 22.6517 169.76 21.6862 171.208 20.8587C172.679 20.0082 174.346 19.2496 176.207 18.583C177.748 18.0084 178.908 17.5026 179.69 17.0659C180.494 16.6292 181.035 16.2269 181.31 15.8591C181.609 15.4683 181.759 15.0661 181.759 14.6523C181.759 14.2385 181.598 13.9052 181.276 13.6524C180.954 13.3765 180.529 13.2386 180 13.2386C179.288 13.2386 178.701 13.434 178.242 13.8248C177.805 14.2156 177.587 14.7443 177.587 15.4109C177.587 15.8246 177.725 16.2614 178 16.7211C178.276 17.1578 178.759 17.7555 179.449 18.5141L189.93 29.8235L185.586 33.8232L173.828 21.0311C173.093 20.2266 172.53 19.422 172.139 18.6175C171.771 17.813 171.587 16.9625 171.587 16.066C171.587 14.5489 171.978 13.2616 172.759 12.2042C173.564 11.1468 174.621 10.3423 175.932 9.79062C177.265 9.21596 178.701 8.92862 180.242 8.92862C181.598 8.92862 182.805 9.12401 183.862 9.51478C184.919 9.90556 185.747 10.4917 186.345 11.2733C186.965 12.0548 187.276 12.9973 187.276 14.1006C187.276 15.4338 186.885 16.5947 186.103 17.5831C185.322 18.5485 184.253 19.399 182.897 20.1346C181.54 20.8702 179.977 21.5598 178.207 22.2034C177.196 22.5942 176.299 23.008 175.518 23.4447C174.736 23.8585 174.139 24.3067 173.725 24.7894C173.311 25.2721 173.104 25.8468 173.104 26.5134C173.104 27.18 173.38 27.7432 173.932 28.2029C174.506 28.6627 175.368 28.8925 176.518 28.8925C177.759 28.8925 178.989 28.5707 180.207 27.9271C181.425 27.2605 182.563 26.2951 183.621 25.0308C184.678 23.7665 185.552 22.2379 186.241 20.4449L191.206 22.031C190.218 24.4216 188.942 26.5134 187.379 28.3064C185.816 30.0764 184.023 31.4556 182 32.444C180 33.4094 177.828 33.8921 175.483 33.8921Z" fill="white"/>
<path d="M202.062 27.6094L202.722 21.9694L214.662 11.4094H220.542L209.472 21.1594L206.262 23.8894L202.062 27.6094ZM196.662 32.4094L200.862 11.4094H205.692L201.492 32.4094H196.662ZM211.332 32.4094L205.332 23.2594L208.782 19.9894L216.792 32.4094H211.332ZM213.642 32.4094L227.202 11.4094H232.032L237.192 32.4094H232.332L228.252 13.8094H230.172L218.832 32.4094H213.642ZM219.252 27.9094L221.232 24.2194H232.062L232.632 27.9094H219.252ZM237.871 32.4094L242.071 11.4094H246.091L255.121 26.6194L253.531 26.5294L256.531 11.4094H261.331L257.131 32.4094H253.141L244.081 17.1994L245.701 17.2894L242.671 32.4094H237.871ZM257.839 32.4094L271.399 11.4094H276.229L281.389 32.4094H276.529L272.449 13.8094H274.369L263.029 32.4094H257.839ZM263.449 27.9094L265.429 24.2194H276.259L276.829 27.9094H263.449ZM292.815 32.7694C290.695 32.7694 288.855 32.3894 287.295 31.6294C285.755 30.8494 284.555 29.7794 283.695 28.4194C282.855 27.0394 282.435 25.4494 282.435 23.6494C282.435 21.8694 282.745 20.2094 283.365 18.6694C284.005 17.1294 284.905 15.7994 286.065 14.6794C287.225 13.5394 288.615 12.6494 290.235 12.0094C291.855 11.3694 293.655 11.0494 295.635 11.0494C297.635 11.0494 299.365 11.3694 300.825 12.0094C302.305 12.6294 303.495 13.5294 304.395 14.7094L300.915 17.5294C300.215 16.6894 299.415 16.0894 298.515 15.7294C297.635 15.3694 296.605 15.1894 295.425 15.1894C294.185 15.1894 293.065 15.3994 292.065 15.8194C291.085 16.2194 290.245 16.7894 289.545 17.5294C288.845 18.2694 288.305 19.1394 287.925 20.1394C287.545 21.1194 287.355 22.1894 287.355 23.3494C287.355 24.4094 287.585 25.3394 288.045 26.1394C288.505 26.9194 289.185 27.5294 290.085 27.9694C291.005 28.4094 292.125 28.6294 293.445 28.6294C294.445 28.6294 295.405 28.4594 296.325 28.1194C297.245 27.7794 298.135 27.2494 298.995 26.5294L300.855 30.2194C299.795 31.0394 298.565 31.6694 297.165 32.1094C295.785 32.5494 294.335 32.7694 292.815 32.7694ZM296.595 29.4694L298.155 21.5794H302.595L300.855 30.2194L296.595 29.4694ZM300.66 32.4094L314.22 11.4094H319.05L324.21 32.4094H319.35L315.27 13.8094H317.19L305.85 32.4094H300.66ZM306.27 27.9094L308.25 24.2194H319.08L319.65 27.9094H306.27ZM328.786 32.4094L326.116 11.4094H330.916L333.256 29.9794H330.736L340.666 11.4094H345.166L347.416 29.9794H345.016L354.886 11.4094H359.716L348.616 32.4094H343.426L341.326 16.0894H342.796L334.006 32.4094H328.786ZM353.236 32.4094L366.796 11.4094H371.626L376.786 32.4094H371.926L367.846 13.8094H369.766L358.426 32.4094H353.236ZM358.846 27.9094L360.826 24.2194H371.656L372.226 27.9094H358.846Z" fill="white"/>
</svg>
