<svg width="370" height="43" viewBox="0 0 370 43" fill="none" xmlns="http://www.w3.org/2000/svg">
  <path
    d="M7.54678 33.0835L11.443 13.4989H3.7195L4.65046 8.94749H25.6833L24.7523 13.4989H17.0633L13.1325 33.0835H7.54678ZM40.0062 33.4973C37.5696 33.4973 35.4663 33.0605 33.6964 32.187C31.9494 31.2905 30.6046 30.0607 29.6622 28.4977C28.7197 26.9116 28.2485 25.0841 28.2485 23.0153C28.2485 20.9465 28.6048 19.0386 29.3174 17.2917C30.03 15.5217 31.0414 13.9931 32.3516 12.7058C33.6849 11.3956 35.2594 10.3727 37.0754 9.6371C38.9143 8.90152 40.9486 8.53374 43.1784 8.53374C45.6149 8.53374 47.7067 8.98198 49.4537 9.87846C51.2237 10.7519 52.5799 11.9817 53.5224 13.5678C54.4648 15.1309 54.936 16.9469 54.936 19.0157C54.936 21.0845 54.5797 23.0038 53.8672 24.7738C53.1546 26.5208 52.1317 28.0494 50.7984 29.3597C49.4882 30.6469 47.9136 31.6583 46.0747 32.3939C44.2587 33.1295 42.2359 33.4973 40.0062 33.4973ZM40.4889 28.739C41.8451 28.739 43.0634 28.4977 44.1438 28.0149C45.2472 27.5092 46.1781 26.8196 46.9367 25.9461C47.6952 25.0726 48.2699 24.0727 48.6607 22.9464C49.0744 21.797 49.2813 20.5902 49.2813 19.326C49.2813 18.1307 49.0285 17.0848 48.5228 16.1883C48.017 15.2688 47.27 14.5562 46.2816 14.0505C45.3161 13.5448 44.1208 13.292 42.6956 13.292C41.3394 13.292 40.1211 13.5448 39.0408 14.0505C37.9604 14.5333 37.0294 15.2114 36.2479 16.0849C35.4893 16.9583 34.9032 17.9698 34.4894 19.1191C34.0986 20.2454 33.9032 21.4407 33.9032 22.705C33.9032 23.9003 34.1561 24.9577 34.6618 25.8772C35.1905 26.7737 35.9376 27.4747 36.903 27.9805C37.8914 28.4862 39.0867 28.739 40.4889 28.739ZM66.7541 27.5667L67.5126 21.0845L81.2357 8.94749H87.9937L75.2706 20.1535L71.5813 23.2912L66.7541 27.5667ZM60.5477 33.0835L65.3749 8.94749H70.9261L66.0989 33.0835H60.5477ZM77.4084 33.0835L70.5124 22.5671L74.4776 18.8088L83.6837 33.0835H77.4084ZM94.251 33.0835L96.2164 23.1533L96.837 26.6702L89.7342 8.94749H95.3199L100.733 22.4981L97.3542 22.5326L108.284 8.94749H114.043L99.9058 26.7047L101.802 23.1533L99.8368 33.0835H94.251ZM126.99 33.4973C124.553 33.4973 122.45 33.0605 120.68 32.187C118.933 31.2905 117.589 30.0607 116.646 28.4977C115.704 26.9116 115.232 25.0841 115.232 23.0153C115.232 20.9465 115.589 19.0386 116.301 17.2917C117.014 15.5217 118.025 13.9931 119.336 12.7058C120.669 11.3956 122.243 10.3727 124.059 9.6371C125.898 8.90152 127.933 8.53374 130.162 8.53374C132.599 8.53374 134.691 8.98198 136.438 9.87846C138.208 10.7519 139.564 11.9817 140.506 13.5678C141.449 15.1309 141.92 16.9469 141.92 19.0157C141.92 21.0845 141.564 23.0038 140.851 24.7738C140.138 26.5208 139.116 28.0494 137.782 29.3597C136.472 30.6469 134.897 31.6583 133.059 32.3939C131.243 33.1295 129.22 33.4973 126.99 33.4973ZM127.473 28.739C128.829 28.739 130.047 28.4977 131.128 28.0149C132.231 27.5092 133.162 26.8196 133.921 25.9461C134.679 25.0726 135.254 24.0727 135.645 22.9464C136.058 21.797 136.265 20.5902 136.265 19.326C136.265 18.1307 136.012 17.0848 135.507 16.1883C135.001 15.2688 134.254 14.5562 133.265 14.0505C132.3 13.5448 131.105 13.292 129.68 13.292C128.323 13.292 127.105 13.5448 126.025 14.0505C124.944 14.5333 124.013 15.2114 123.232 16.0849C122.473 16.9583 121.887 17.9698 121.473 19.1191C121.083 20.2454 120.887 21.4407 120.887 22.705C120.887 23.9003 121.14 24.9577 121.646 25.8772C122.174 26.7737 122.921 27.4747 123.887 27.9805C124.875 28.4862 126.071 28.739 127.473 28.739Z"
    fill="white"></path>
  <path
    d="M175.483 33.5662C173.782 33.5662 172.254 33.3134 170.898 32.8077C169.541 32.3019 168.472 31.5894 167.691 30.6699C166.932 29.7274 166.553 28.6011 166.553 27.2909C166.553 25.7967 166.967 24.5095 167.794 23.4291C168.622 22.3257 169.76 21.3603 171.208 20.5328C172.679 19.6823 174.346 18.9237 176.207 18.2571C177.748 17.6824 178.908 17.1767 179.69 16.74C180.494 16.3032 181.035 15.901 181.31 15.5332C181.609 15.1424 181.759 14.7401 181.759 14.3264C181.759 13.9126 181.598 13.5793 181.276 13.3265C180.954 13.0506 180.529 12.9127 180 12.9127C179.288 12.9127 178.701 13.1081 178.242 13.4989C177.805 13.8896 177.587 14.4183 177.587 15.0849C177.587 15.4987 177.725 15.9354 178 16.3952C178.276 16.8319 178.759 17.4296 179.449 18.1881L189.93 29.4976L185.586 33.4973L173.828 20.7052C173.093 19.9006 172.53 19.0961 172.139 18.2916C171.771 17.487 171.587 16.6365 171.587 15.7401C171.587 14.2229 171.978 12.9357 172.759 11.8783C173.564 10.8209 174.621 10.0164 175.932 9.46469C177.265 8.89003 178.701 8.6027 180.242 8.6027C181.598 8.6027 182.805 8.79808 183.862 9.18886C184.919 9.57963 185.747 10.1658 186.345 10.9473C186.965 11.7289 187.276 12.6713 187.276 13.7747C187.276 15.1079 186.885 16.2687 186.103 17.2572C185.322 18.2226 184.253 19.0731 182.897 19.8087C181.54 20.5443 179.977 21.2339 178.207 21.8775C177.196 22.2683 176.299 22.682 175.518 23.1188C174.736 23.5325 174.139 23.9808 173.725 24.4635C173.311 24.9462 173.104 25.5209 173.104 26.1875C173.104 26.8541 173.38 27.4173 173.932 27.877C174.506 28.3367 175.368 28.5666 176.518 28.5666C177.759 28.5666 178.989 28.2448 180.207 27.6012C181.425 26.9346 182.563 25.9691 183.621 24.7049C184.678 23.4406 185.552 21.912 186.241 20.119L191.206 21.7051C190.218 24.0957 188.942 26.1875 187.379 27.9805C185.816 29.7504 184.023 31.1296 182 32.1181C180 33.0835 177.828 33.5662 175.483 33.5662Z"
    fill="white"></path>
  <path
    d="M214.108 33.4973C212.798 33.4973 211.522 33.3708 210.281 33.118C209.063 32.8881 207.948 32.5663 206.936 32.1525C205.948 31.7388 205.109 31.2905 204.419 30.8078L206.695 26.4978C207.453 27.0265 208.258 27.4862 209.109 27.877C209.982 28.2448 210.89 28.5321 211.832 28.739C212.775 28.9229 213.717 29.0149 214.66 29.0149C215.694 29.0149 216.579 28.8999 217.315 28.6701C218.073 28.4402 218.648 28.1184 219.039 27.7046C219.453 27.2909 219.659 26.7851 219.659 26.1875C219.659 25.6358 219.441 25.1876 219.004 24.8428C218.568 24.498 217.993 24.2106 217.28 23.9808C216.591 23.7279 215.821 23.4866 214.97 23.2567C214.12 23.0268 213.258 22.7625 212.384 22.4637C211.534 22.1418 210.752 21.7511 210.039 21.2913C209.35 20.8086 208.787 20.1995 208.35 19.4639C207.913 18.7283 207.695 17.8089 207.695 16.7055C207.695 15.0505 208.143 13.6138 209.04 12.3955C209.959 11.1772 211.246 10.2347 212.901 9.56813C214.556 8.87854 216.499 8.53374 218.728 8.53374C220.361 8.53374 221.901 8.71763 223.349 9.08542C224.797 9.43021 226.038 9.93592 227.073 10.6025L224.969 14.8781C224.05 14.2574 223.027 13.7977 221.901 13.4989C220.774 13.177 219.613 13.0161 218.418 13.0161C217.338 13.0161 216.407 13.1426 215.625 13.3954C214.867 13.6483 214.281 14.0046 213.867 14.4643C213.476 14.901 213.281 15.4067 213.281 15.9814C213.281 16.5561 213.487 17.0273 213.901 17.3951C214.338 17.7399 214.913 18.0387 215.625 18.2916C216.338 18.5214 217.119 18.7513 217.97 18.9812C218.82 19.211 219.671 19.4754 220.521 19.7742C221.372 20.073 222.153 20.4523 222.866 20.9121C223.579 21.3718 224.153 21.9579 224.59 22.6705C225.027 23.3601 225.245 24.2336 225.245 25.291C225.245 26.9461 224.785 28.3942 223.866 29.6355C222.947 30.8538 221.648 31.8077 219.97 32.4973C218.315 33.1639 216.361 33.4973 214.108 33.4973ZM224.338 33.0835L239.923 8.94749H245.474L251.405 33.0835H245.819L241.13 11.7059H243.337L230.303 33.0835H224.338ZM230.786 27.9115L233.062 23.6705H245.509L246.164 27.9115H230.786ZM253.737 33.0835L258.564 8.94749H264.184L259.357 33.0835H253.737ZM269.878 33.0835L273.774 13.4989H266.05L266.981 8.94749H288.014L287.083 13.4989H279.394L275.463 33.0835H269.878ZM281.636 33.0835L297.221 8.94749H302.772L308.702 33.0835H303.117L298.427 11.7059H300.634L287.601 33.0835H281.636ZM288.083 27.9115L290.359 23.6705H302.806L303.461 27.9115H288.083ZM311.034 33.0835L315.861 8.94749H320.413L327.274 26.0496L324.861 26.0151L338.239 8.94749H343.032L338.239 33.0835H332.998L336.205 16.9124H337.273L326.619 30.532H324.137L318.447 16.8779L319.482 16.9813L316.275 33.0835H311.034ZM340.621 33.0835L356.206 8.94749H361.757L367.687 33.0835H362.102L357.412 11.7059H359.619L346.586 33.0835H340.621ZM347.068 27.9115L349.344 23.6705H361.791L362.446 27.9115H347.068Z"
    fill="white"></path>
</svg>
