<svg width="348" height="43" viewBox="0 0 348 43" fill="none" xmlns="http://www.w3.org/2000/svg">
<path d="M7.54678 33.0835L11.443 13.4989H3.7195L4.65046 8.94749H25.6833L24.7523 13.4989H17.0633L13.1325 33.0835H7.54678ZM40.0062 33.4973C37.5696 33.4973 35.4663 33.0605 33.6964 32.187C31.9494 31.2905 30.6046 30.0607 29.6622 28.4977C28.7197 26.9116 28.2485 25.0841 28.2485 23.0153C28.2485 20.9465 28.6048 19.0386 29.3174 17.2917C30.03 15.5217 31.0414 13.9931 32.3516 12.7058C33.6849 11.3956 35.2594 10.3727 37.0754 9.6371C38.9143 8.90152 40.9486 8.53374 43.1784 8.53374C45.6149 8.53374 47.7067 8.98198 49.4537 9.87846C51.2237 10.7519 52.5799 11.9817 53.5224 13.5678C54.4648 15.1309 54.936 16.9469 54.936 19.0157C54.936 21.0845 54.5797 23.0038 53.8672 24.7738C53.1546 26.5208 52.1317 28.0494 50.7984 29.3597C49.4882 30.6469 47.9136 31.6583 46.0747 32.3939C44.2587 33.1295 42.2359 33.4973 40.0062 33.4973ZM40.4889 28.739C41.8451 28.739 43.0634 28.4977 44.1438 28.0149C45.2472 27.5092 46.1781 26.8196 46.9367 25.9461C47.6952 25.0726 48.2699 24.0727 48.6607 22.9464C49.0744 21.797 49.2813 20.5902 49.2813 19.326C49.2813 18.1307 49.0285 17.0848 48.5228 16.1883C48.017 15.2688 47.27 14.5562 46.2816 14.0505C45.3161 13.5448 44.1208 13.292 42.6956 13.292C41.3394 13.292 40.1211 13.5448 39.0408 14.0505C37.9604 14.5333 37.0294 15.2114 36.2479 16.0849C35.4893 16.9583 34.9032 17.9698 34.4894 19.1191C34.0986 20.2454 33.9032 21.4407 33.9032 22.705C33.9032 23.9003 34.1561 24.9577 34.6618 25.8772C35.1905 26.7737 35.9376 27.4747 36.903 27.9805C37.8914 28.4862 39.0867 28.739 40.4889 28.739ZM66.7541 27.5667L67.5126 21.0845L81.2357 8.94749H87.9937L75.2706 20.1535L71.5813 23.2912L66.7541 27.5667ZM60.5477 33.0835L65.3749 8.94749H70.9261L66.0989 33.0835H60.5477ZM77.4084 33.0835L70.5124 22.5671L74.4776 18.8088L83.6837 33.0835H77.4084ZM94.251 33.0835L96.2164 23.1533L96.837 26.6702L89.7342 8.94749H95.3199L100.733 22.4981L97.3542 22.5326L108.284 8.94749H114.043L99.9058 26.7047L101.802 23.1533L99.8368 33.0835H94.251ZM126.99 33.4973C124.553 33.4973 122.45 33.0605 120.68 32.187C118.933 31.2905 117.589 30.0607 116.646 28.4977C115.704 26.9116 115.232 25.0841 115.232 23.0153C115.232 20.9465 115.589 19.0386 116.301 17.2917C117.014 15.5217 118.025 13.9931 119.336 12.7058C120.669 11.3956 122.243 10.3727 124.059 9.6371C125.898 8.90152 127.933 8.53374 130.162 8.53374C132.599 8.53374 134.691 8.98198 136.438 9.87846C138.208 10.7519 139.564 11.9817 140.506 13.5678C141.449 15.1309 141.92 16.9469 141.92 19.0157C141.92 21.0845 141.564 23.0038 140.851 24.7738C140.138 26.5208 139.116 28.0494 137.782 29.3597C136.472 30.6469 134.897 31.6583 133.059 32.3939C131.243 33.1295 129.22 33.4973 126.99 33.4973ZM127.473 28.739C128.829 28.739 130.047 28.4977 131.128 28.0149C132.231 27.5092 133.162 26.8196 133.921 25.9461C134.679 25.0726 135.254 24.0727 135.645 22.9464C136.058 21.797 136.265 20.5902 136.265 19.326C136.265 18.1307 136.012 17.0848 135.507 16.1883C135.001 15.2688 134.254 14.5562 133.265 14.0505C132.3 13.5448 131.105 13.292 129.68 13.292C128.323 13.292 127.105 13.5448 126.025 14.0505C124.944 14.5333 124.013 15.2114 123.232 16.0849C122.473 16.9583 121.887 17.9698 121.473 19.1191C121.083 20.2454 120.887 21.4407 120.887 22.705C120.887 23.9003 121.14 24.9577 121.646 25.8772C122.174 26.7737 122.921 27.4747 123.887 27.9805C124.875 28.4862 126.071 28.739 127.473 28.739Z" fill="white"/>
<path d="M175.483 33.5662C173.782 33.5662 172.254 33.3134 170.898 32.8077C169.541 32.3019 168.472 31.5894 167.691 30.6699C166.932 29.7274 166.553 28.6011 166.553 27.2909C166.553 25.7967 166.967 24.5095 167.794 23.4291C168.622 22.3257 169.76 21.3603 171.208 20.5328C172.679 19.6823 174.346 18.9237 176.207 18.2571C177.748 17.6824 178.908 17.1767 179.69 16.74C180.494 16.3032 181.035 15.901 181.31 15.5332C181.609 15.1424 181.759 14.7401 181.759 14.3264C181.759 13.9126 181.598 13.5793 181.276 13.3265C180.954 13.0506 180.529 12.9127 180 12.9127C179.288 12.9127 178.701 13.1081 178.242 13.4989C177.805 13.8896 177.587 14.4183 177.587 15.0849C177.587 15.4987 177.725 15.9354 178 16.3952C178.276 16.8319 178.759 17.4296 179.449 18.1881L189.93 29.4976L185.586 33.4973L173.828 20.7052C173.093 19.9006 172.53 19.0961 172.139 18.2916C171.771 17.487 171.587 16.6365 171.587 15.7401C171.587 14.2229 171.978 12.9357 172.759 11.8783C173.564 10.8209 174.621 10.0164 175.932 9.46469C177.265 8.89003 178.701 8.6027 180.242 8.6027C181.598 8.6027 182.805 8.79808 183.862 9.18886C184.919 9.57963 185.747 10.1658 186.345 10.9473C186.965 11.7289 187.276 12.6713 187.276 13.7747C187.276 15.1079 186.885 16.2687 186.103 17.2572C185.322 18.2226 184.253 19.0731 182.897 19.8087C181.54 20.5443 179.977 21.2339 178.207 21.8775C177.196 22.2683 176.299 22.682 175.518 23.1188C174.736 23.5325 174.139 23.9808 173.725 24.4635C173.311 24.9462 173.104 25.5209 173.104 26.1875C173.104 26.8541 173.38 27.4173 173.932 27.877C174.506 28.3367 175.368 28.5666 176.518 28.5666C177.759 28.5666 178.989 28.2448 180.207 27.6012C181.425 26.9346 182.563 25.9691 183.621 24.7049C184.678 23.4406 185.552 21.912 186.241 20.119L191.206 21.7051C190.218 24.0957 188.942 26.1875 187.379 27.9805C185.816 29.7504 184.023 31.1296 182 32.1181C180 33.0835 177.828 33.5662 175.483 33.5662Z" fill="white"/>
<path d="M239.457 33.4973C236.998 33.4973 234.871 33.0605 233.078 32.187C231.308 31.2905 229.941 30.0607 228.975 28.4977C228.01 26.9116 227.527 25.0841 227.527 23.0153C227.527 20.9695 227.883 19.0616 228.596 17.2917C229.332 15.5217 230.355 13.9931 231.665 12.7058C232.998 11.3956 234.573 10.3727 236.389 9.6371C238.227 8.90152 240.273 8.53374 242.526 8.53374C244.687 8.53374 246.595 8.90152 248.25 9.6371C249.905 10.3727 251.157 11.4301 252.008 12.8093L247.974 16.1193C247.353 15.1999 246.56 14.4988 245.595 14.0161C244.629 13.5333 243.48 13.292 242.147 13.292C240.79 13.292 239.561 13.5333 238.457 14.0161C237.354 14.4758 236.4 15.1424 235.595 16.0159C234.814 16.8664 234.216 17.8663 233.803 19.0157C233.389 20.165 233.182 21.3833 233.182 22.6705C233.182 23.8888 233.446 24.9577 233.975 25.8772C234.504 26.7737 235.274 27.4747 236.285 27.9805C237.296 28.4862 238.515 28.739 239.94 28.739C241.181 28.739 242.342 28.5206 243.422 28.0839C244.503 27.6242 245.48 26.9116 246.353 25.9461L249.663 29.3252C248.399 30.7963 246.893 31.8652 245.146 32.5318C243.422 33.1754 241.526 33.4973 239.457 33.4973ZM274.468 8.94749H280.054L275.227 33.0835H269.641L274.468 8.94749ZM258.711 33.0835H253.091L257.918 8.94749H263.538L258.711 33.0835ZM272.055 23.1877H260.297L261.228 18.464H272.986L272.055 23.1877ZM281.972 33.0835L286.799 8.94749H292.419L287.592 33.0835H281.972ZM294.32 33.0835L299.147 8.94749H310.801C313.422 8.94749 315.422 9.41872 316.801 10.3612C318.203 11.3036 318.904 12.6713 318.904 14.4643C318.904 15.9814 318.502 17.2572 317.697 18.2916C316.916 19.326 315.87 20.1075 314.56 20.6362C313.249 21.1649 311.824 21.4293 310.284 21.4293L311.18 20.0501C313.203 20.0501 314.812 20.5213 316.008 21.4637C317.226 22.3832 317.835 23.7164 317.835 25.4634C317.835 27.1644 317.364 28.5896 316.421 29.7389C315.502 30.8653 314.226 31.7043 312.594 32.256C310.962 32.8077 309.089 33.0835 306.974 33.0835H294.32ZM300.733 28.8769H307.319C308.859 28.8769 310.066 28.5896 310.939 28.0149C311.836 27.4173 312.284 26.5438 312.284 25.3945C312.284 24.498 311.951 23.8658 311.284 23.4981C310.64 23.1073 309.767 22.9119 308.663 22.9119H301.285L302.112 18.8433H308.388C309.353 18.8433 310.181 18.7168 310.87 18.464C311.583 18.2111 312.123 17.8318 312.491 17.3261C312.858 16.7974 313.042 16.1653 313.042 15.4297C313.042 14.6252 312.732 14.0505 312.111 13.7057C311.491 13.3379 310.617 13.1541 309.491 13.1541H303.836L300.733 28.8769ZM318.547 33.0835L334.132 8.94749H339.683L345.614 33.0835H340.028L335.339 11.7059H337.546L324.512 33.0835H318.547ZM324.995 27.9115L327.271 23.6705H339.718L340.373 27.9115H324.995Z" fill="white"/>
</svg>
