<svg width="378" height="43" viewBox="0 0 378 43" fill="none" xmlns="http://www.w3.org/2000/svg">
<path d="M7.54678 33.4094L11.443 13.8248H3.7195L4.65046 9.27342H25.6833L24.7523 13.8248H17.0633L13.1325 33.4094H7.54678ZM40.0062 33.8232C37.5696 33.8232 35.4663 33.3864 33.6964 32.5129C31.9494 31.6165 30.6046 30.3867 29.6622 28.8236C28.7197 27.2375 28.2485 25.4101 28.2485 23.3413C28.2485 21.2725 28.6048 19.3646 29.3174 17.6176C30.03 15.8476 31.0414 14.319 32.3516 13.0317C33.6849 11.7215 35.2594 10.6986 37.0754 9.96302C38.9143 9.22745 40.9486 8.85966 43.1784 8.85966C45.6149 8.85966 47.7067 9.3079 49.4537 10.2044C51.2237 11.0779 52.5799 12.3077 53.5224 13.8937C54.4648 15.4568 54.936 17.2728 54.936 19.3416C54.936 21.4104 54.5797 23.3298 53.8672 25.0997C53.1546 26.8467 52.1317 28.3753 50.7984 29.6856C49.4882 30.9728 47.9136 31.9843 46.0747 32.7198C44.2587 33.4554 42.2359 33.8232 40.0062 33.8232ZM40.4889 29.0649C41.8451 29.0649 43.0634 28.8236 44.1438 28.3409C45.2472 27.8352 46.1781 27.1456 46.9367 26.2721C47.6952 25.3986 48.2699 24.3987 48.6607 23.2723C49.0744 22.123 49.2813 20.9162 49.2813 19.6519C49.2813 18.4566 49.0285 17.4107 48.5228 16.5142C48.017 15.5948 47.27 14.8822 46.2816 14.3765C45.3161 13.8708 44.1208 13.6179 42.6956 13.6179C41.3394 13.6179 40.1211 13.8708 39.0408 14.3765C37.9604 14.8592 37.0294 15.5373 36.2479 16.4108C35.4893 17.2843 34.9032 18.2957 34.4894 19.445C34.0986 20.5714 33.9032 21.7667 33.9032 23.0309C33.9032 24.2262 34.1561 25.2836 34.6618 26.2031C35.1905 27.0996 35.9376 27.8007 36.903 28.3064C37.8914 28.8121 39.0867 29.0649 40.4889 29.0649ZM66.7541 27.8926L67.5126 21.4104L81.2357 9.27342H87.9937L75.2706 20.4794L71.5813 23.6171L66.7541 27.8926ZM60.5477 33.4094L65.3749 9.27342H70.9261L66.0989 33.4094H60.5477ZM77.4084 33.4094L70.5124 22.893L74.4776 19.1347L83.6837 33.4094H77.4084ZM94.251 33.4094L96.2164 23.4792L96.837 26.9961L89.7342 9.27342H95.3199L100.733 22.8241L97.3542 22.8585L108.284 9.27342H114.043L99.9058 27.0306L101.802 23.4792L99.8368 33.4094H94.251ZM126.99 33.8232C124.553 33.8232 122.45 33.3864 120.68 32.5129C118.933 31.6165 117.589 30.3867 116.646 28.8236C115.704 27.2375 115.232 25.4101 115.232 23.3413C115.232 21.2725 115.589 19.3646 116.301 17.6176C117.014 15.8476 118.025 14.319 119.336 13.0317C120.669 11.7215 122.243 10.6986 124.059 9.96302C125.898 9.22745 127.933 8.85966 130.162 8.85966C132.599 8.85966 134.691 9.3079 136.438 10.2044C138.208 11.0779 139.564 12.3077 140.506 13.8937C141.449 15.4568 141.92 17.2728 141.92 19.3416C141.92 21.4104 141.564 23.3298 140.851 25.0997C140.138 26.8467 139.116 28.3753 137.782 29.6856C136.472 30.9728 134.897 31.9843 133.059 32.7198C131.243 33.4554 129.22 33.8232 126.99 33.8232ZM127.473 29.0649C128.829 29.0649 130.047 28.8236 131.128 28.3409C132.231 27.8352 133.162 27.1456 133.921 26.2721C134.679 25.3986 135.254 24.3987 135.645 23.2723C136.058 22.123 136.265 20.9162 136.265 19.6519C136.265 18.4566 136.012 17.4107 135.507 16.5142C135.001 15.5948 134.254 14.8822 133.265 14.3765C132.3 13.8708 131.105 13.6179 129.68 13.6179C128.323 13.6179 127.105 13.8708 126.025 14.3765C124.944 14.8592 124.013 15.5373 123.232 16.4108C122.473 17.2843 121.887 18.2957 121.473 19.445C121.083 20.5714 120.887 21.7667 120.887 23.0309C120.887 24.2262 121.14 25.2836 121.646 26.2031C122.174 27.0996 122.921 27.8007 123.887 28.3064C124.875 28.8121 126.071 29.0649 127.473 29.0649Z" fill="white"/>
<path d="M175.483 33.8921C173.782 33.8921 172.254 33.6393 170.898 33.1336C169.541 32.6279 168.472 31.9153 167.691 30.9958C166.932 30.0534 166.553 28.927 166.553 27.6168C166.553 26.1227 166.967 24.8354 167.794 23.755C168.622 22.6517 169.76 21.6862 171.208 20.8587C172.679 20.0082 174.346 19.2496 176.207 18.583C177.748 18.0084 178.908 17.5026 179.69 17.0659C180.494 16.6292 181.035 16.2269 181.31 15.8591C181.609 15.4683 181.759 15.0661 181.759 14.6523C181.759 14.2385 181.598 13.9052 181.276 13.6524C180.954 13.3765 180.529 13.2386 180 13.2386C179.288 13.2386 178.701 13.434 178.242 13.8248C177.805 14.2156 177.587 14.7443 177.587 15.4109C177.587 15.8246 177.725 16.2614 178 16.7211C178.276 17.1578 178.759 17.7555 179.449 18.5141L189.93 29.8235L185.586 33.8232L173.828 21.0311C173.093 20.2266 172.53 19.422 172.139 18.6175C171.771 17.813 171.587 16.9625 171.587 16.066C171.587 14.5489 171.978 13.2616 172.759 12.2042C173.564 11.1468 174.621 10.3423 175.932 9.79062C177.265 9.21596 178.701 8.92862 180.242 8.92862C181.598 8.92862 182.805 9.12401 183.862 9.51478C184.919 9.90556 185.747 10.4917 186.345 11.2733C186.965 12.0548 187.276 12.9973 187.276 14.1006C187.276 15.4338 186.885 16.5947 186.103 17.5831C185.322 18.5485 184.253 19.399 182.897 20.1346C181.54 20.8702 179.977 21.5598 178.207 22.2034C177.196 22.5942 176.299 23.008 175.518 23.4447C174.736 23.8585 174.139 24.3067 173.725 24.7894C173.311 25.2721 173.104 25.8468 173.104 26.5134C173.104 27.18 173.38 27.7432 173.932 28.2029C174.506 28.6627 175.368 28.8925 176.518 28.8925C177.759 28.8925 178.989 28.5707 180.207 27.9271C181.425 27.2605 182.563 26.2951 183.621 25.0308C184.678 23.7665 185.552 22.2379 186.241 20.4449L191.206 22.031C190.218 24.4216 188.942 26.5134 187.379 28.3064C185.816 30.0764 184.023 31.4556 182 32.444C180 33.4094 177.828 33.8921 175.483 33.8921Z" fill="white"/>
<path d="M201.546 32.4094L203.256 23.7694L203.796 26.8294L197.616 11.4094H202.476L207.186 23.1994L204.246 23.2294L213.756 11.4094H218.766L206.466 26.8594L208.116 23.7694L206.406 32.4094H201.546ZM211.05 32.4094L224.61 11.4094H229.44L234.6 32.4094H229.74L225.66 13.8094H227.58L216.24 32.4094H211.05ZM216.66 27.9094L218.64 24.2194H229.47L230.04 27.9094H216.66ZM235.279 32.4094L239.479 11.4094H243.439L249.409 26.2894L247.309 26.2594L258.949 11.4094H263.119L258.949 32.4094H254.389L257.179 18.3394H258.109L248.839 30.1894H246.679L241.729 18.3094L242.629 18.3994L239.839 32.4094H235.279ZM259.672 32.4094L273.232 11.4094H278.062L283.222 32.4094H278.362L274.282 13.8094H276.202L264.862 32.4094H259.672ZM265.282 27.9094L267.262 24.2194H278.092L278.662 27.9094H265.282ZM283.9 32.4094L288.1 11.4094H292.12L301.15 26.6194L299.56 26.5294L302.56 11.4094H307.36L303.16 32.4094H299.17L290.11 17.1994L291.73 17.2894L288.7 32.4094H283.9ZM303.869 32.4094L317.429 11.4094H322.259L327.419 32.4094H322.559L318.479 13.8094H320.399L309.059 32.4094H303.869ZM309.479 27.9094L311.459 24.2194H322.289L322.859 27.9094H309.479ZM335.418 32.7694C334.278 32.7694 333.168 32.6594 332.088 32.4394C331.028 32.2394 330.058 31.9594 329.178 31.5994C328.318 31.2394 327.588 30.8494 326.988 30.4294L328.968 26.6794C329.628 27.1394 330.328 27.5394 331.068 27.8794C331.828 28.1994 332.618 28.4494 333.438 28.6294C334.258 28.7894 335.078 28.8694 335.898 28.8694C336.798 28.8694 337.568 28.7694 338.208 28.5694C338.868 28.3694 339.368 28.0894 339.708 27.7294C340.068 27.3694 340.248 26.9294 340.248 26.4094C340.248 25.9294 340.058 25.5394 339.678 25.2394C339.298 24.9394 338.798 24.6894 338.178 24.4894C337.578 24.2694 336.908 24.0594 336.168 23.8594C335.428 23.6594 334.678 23.4294 333.918 23.1694C333.178 22.8894 332.498 22.5494 331.878 22.1494C331.278 21.7294 330.788 21.1994 330.408 20.5594C330.028 19.9194 329.838 19.1194 329.838 18.1594C329.838 16.7194 330.228 15.4694 331.008 14.4094C331.808 13.3494 332.928 12.5294 334.368 11.9494C335.808 11.3494 337.498 11.0494 339.438 11.0494C340.858 11.0494 342.198 11.2094 343.458 11.5294C344.718 11.8294 345.798 12.2694 346.698 12.8494L344.868 16.5694C344.068 16.0294 343.178 15.6294 342.198 15.3694C341.218 15.0894 340.208 14.9494 339.168 14.9494C338.228 14.9494 337.418 15.0594 336.738 15.2794C336.078 15.4994 335.568 15.8094 335.208 16.2094C334.868 16.5894 334.698 17.0294 334.698 17.5294C334.698 18.0294 334.878 18.4394 335.238 18.7594C335.618 19.0594 336.118 19.3194 336.738 19.5394C337.358 19.7394 338.038 19.9394 338.778 20.1394C339.518 20.3394 340.258 20.5694 340.998 20.8294C341.738 21.0894 342.418 21.4194 343.038 21.8194C343.658 22.2194 344.158 22.7294 344.538 23.3494C344.918 23.9494 345.108 24.7094 345.108 25.6294C345.108 27.0694 344.708 28.3294 343.908 29.4094C343.108 30.4694 341.978 31.2994 340.518 31.8994C339.078 32.4794 337.378 32.7694 335.418 32.7694ZM364.328 11.4094H369.188L364.988 32.4094H360.128L364.328 11.4094ZM350.618 32.4094H345.728L349.928 11.4094H354.818L350.618 32.4094ZM362.228 23.7994H351.998L352.808 19.6894H363.038L362.228 23.7994ZM368.457 32.4094L372.657 11.4094H377.547L373.347 32.4094H368.457Z" fill="white"/>
</svg>
