<svg width="106" height="34" viewBox="0 0 106 34" fill="none" xmlns="http://www.w3.org/2000/svg">
<g id="Text input">
<path id="Vector" d="M77.6606 1.24609H84.7531L66.8399 32.4824H60.3838L56.292 1.24609H63.5664L65.2941 24.8702H65.385L77.6606 1.24609Z" fill="white"/>
<path id="Vector_2" d="M89.8451 1.3335H97.2104C105.212 1.3335 106.122 6.14581 105.485 9.38319C104.485 13.8455 101.575 15.158 100.12 15.7704C103.757 17.1704 104.121 20.2328 103.485 23.3827C102.939 25.8326 101.302 28.195 99.2109 29.8574C96.9376 31.6073 94.9372 32.6573 88.2993 32.6573H71.75L89.8451 1.3335ZM82.207 27.2325H90.5725C93.846 27.2325 96.1193 25.8326 96.7558 22.6827C97.3923 19.9703 95.119 18.9203 92.6639 18.9203H84.0256L82.207 27.2325ZM85.2077 13.583H93.2095C95.8465 13.583 98.2107 12.6206 98.7562 10.0832C99.3018 7.54576 97.5741 6.75829 94.4825 6.75829H86.6625L85.2077 13.583Z" fill="white"/>
<path id="Vector_3" d="M9.64465 32.4827H2.91583L10.463 6.93368H0.642578L2.27932 1.42139H28.4672L26.8304 6.93368H17.1009L9.64465 32.4827Z" fill="white"/>
<path id="Vector_4" d="M48.1994 11.5709C48.1994 9.73344 48.2903 6.23358 42.7436 6.23358C39.4701 6.23358 34.1052 8.33349 31.3773 17.0832C29.6496 22.6829 30.3771 27.6703 36.1057 27.6703C39.8338 27.6703 43.1073 25.6578 45.0168 21.808H51.7456C48.2903 28.5452 42.2889 33.27 34.1961 33.27C25.6487 33.27 21.1931 27.6703 24.5575 16.9957C27.922 6.14608 36.1057 0.633789 44.4712 0.633789C54.1098 0.633789 56.0194 7.02105 55.0191 11.5709H48.1994Z" fill="white"/>
</g>
</svg>
