<svg xmlns="http://www.w3.org/2000/svg" width="28" height="27" viewBox="0 0 28 27" fill="none">
  <path
    d="M0.930017 13.42C0.930017 20.6468 6.77317 26.49 14 26.49C21.2269 26.49 27.07 20.6468 27.07 13.42C27.07 6.19316 21.2269 0.35 14 0.35C6.77317 0.35 0.930017 6.19316 0.930017 13.42ZM2.75002 13.42C2.75002 7.19484 7.77486 2.17 14 2.17C20.2252 2.17 25.25 7.19484 25.25 13.42C25.25 19.6452 20.2252 24.67 14 24.67C7.77486 24.67 2.75002 19.6452 2.75002 13.42Z"
    fill="#2F8D2F"
    stroke="#2F8D2F"
    stroke-width="0.3"
  >
  </path>
  <path
    d="M14.1223 20.8979L14.2284 21.004L14.3344 20.8979L15.3984 19.8339L15.5045 19.7279L15.3984 19.6218L9.19652 13.4199L15.3984 7.21792L15.5045 7.11185L15.3984 7.00579L14.3344 5.94179L14.2284 5.83572L14.1223 5.94179L6.75032 13.3138L6.64425 13.4199L6.75032 13.5259L14.1223 20.8979Z"
    fill="#2F8D2F"
    stroke="#2F8D2F"
    stroke-width="0.3"
  >
  </path>
  <path
    d="M7.91986 12.5102H7.76986V12.6602V14.1802V14.3302H7.91986H20.8399H20.9899V14.1802V12.6602V12.5102H20.8399H7.91986Z"
    fill="#2F8D2F"
    stroke="#2F8D2F"
    stroke-width="0.3"
  >
  </path>
</svg>
