<svg xmlns="http://www.w3.org/2000/svg" width="214" height="12" viewBox="0 0 214 12" fill="none">
  <path d="M4.94494 9.42038H3.12634V2.33315H0.398438V0.845703H7.67284V2.33315H4.94494V9.42038Z" fill="white"/>
  <path d="M10.4005 9.59506C8.58194 9.59506 7.03613 8.5451 7.03613 6.27018C7.03613 3.99527 8.67287 2.94531 10.4005 2.94531C12.2191 2.94531 13.765 3.99527 13.765 6.27018C13.8559 8.5451 12.2191 9.59506 10.4005 9.59506ZM10.4005 4.34526C9.03659 4.34526 8.85473 5.48272 8.85473 6.27018C8.85473 7.05765 9.12752 8.19511 10.4005 8.19511C11.7645 8.19511 11.9464 7.05765 11.9464 6.27018C12.0373 5.48272 11.7645 4.34526 10.4005 4.34526Z" fill="white"/>
  <path d="M16.8566 9.42038H15.1289V0.845703H16.8566V5.48303L19.0389 3.03312H21.1303L18.7661 5.48303L21.1303 9.42038H19.0389L17.4931 6.70798L16.7657 7.40795V9.42038H16.8566Z" fill="white"/>
  <path d="M26.4046 9.33296C25.5862 11.6954 25.4043 11.9579 23.8585 11.9579C23.5857 11.9579 23.313 11.9579 23.0402 11.9579V10.6454C23.1311 10.6454 23.222 10.6454 23.4039 10.6454C24.0404 10.6454 24.4041 10.5579 24.586 9.68295L22.1309 3.0332H24.0404L25.4953 7.75802L26.8592 3.0332H28.6778L26.4046 9.33296Z" fill="white"/>
  <path d="M32.133 9.59506C30.3144 9.59506 28.7686 8.5451 28.7686 6.27018C28.7686 3.99527 30.4053 2.94531 32.133 2.94531C33.9516 2.94531 35.4974 3.99527 35.4974 6.27018C35.4974 8.5451 33.9516 9.59506 32.133 9.59506ZM32.133 4.34526C30.769 4.34526 30.5872 5.48272 30.5872 6.27018C30.5872 7.05765 30.86 8.19511 32.133 8.19511C33.4969 8.19511 33.6788 7.05765 33.6788 6.27018C33.7697 5.48272 33.4969 4.34526 32.133 4.34526Z" fill="white"/>
  <path d="M46.0455 3.64548C45.8637 3.1205 45.5909 2.15804 44.0451 2.15804C43.1358 2.15804 41.8628 2.77052 41.8628 5.13293C41.8628 6.70787 42.4993 8.02032 44.0451 8.02032C45.0453 8.02032 45.7727 7.49534 46.0455 6.44538H47.8641C47.5004 8.28281 46.2274 9.59526 43.9542 9.59526C41.59 9.59526 39.8623 8.02032 39.8623 5.04543C39.8623 2.07054 41.6809 0.495605 43.9542 0.495605C46.5911 0.495605 47.6823 2.24554 47.7732 3.55799H46.0455V3.64548Z" fill="white"/>
  <path d="M52.047 9.59506C50.2284 9.59506 48.6826 8.5451 48.6826 6.27018C48.6826 3.99527 50.3194 2.94531 52.047 2.94531C53.8656 2.94531 55.4114 3.99527 55.4114 6.27018C55.4114 8.5451 53.8656 9.59506 52.047 9.59506ZM52.047 4.34526C50.6831 4.34526 50.5012 5.48272 50.5012 6.27018C50.5012 7.05765 50.774 8.19511 52.047 8.19511C53.411 8.19511 53.5928 7.05765 53.5928 6.27018C53.6838 5.48272 53.411 4.34526 52.047 4.34526Z" fill="white"/>
  <path d="M62.594 9.42007H60.8664V5.57021C60.8664 5.13273 60.8664 4.34526 59.7752 4.34526C59.0478 4.34526 58.4113 4.87024 58.4113 5.8327V9.50756H56.6836V3.12031H58.3203V4.08277C58.5931 3.73278 59.0478 2.94531 60.3208 2.94531C61.5938 2.94531 62.594 3.64529 62.594 5.04523V9.42007Z" fill="white"/>
  <path d="M67.4142 9.42046H65.5956L63.2314 3.0332H65.141L66.5049 7.75802L67.8689 3.0332H69.6875L67.4142 9.42046Z" fill="white"/>
  <path d="M76.5065 7.58273C76.0518 9.07017 74.6879 9.59515 73.5967 9.59515C71.7781 9.59515 70.3232 8.72019 70.3232 6.09529C70.3232 5.30782 70.596 2.85791 73.5058 2.85791C74.7788 2.85791 76.5974 3.47039 76.5974 6.35778V6.62027H72.0509C72.1418 7.05775 72.2328 8.19521 73.5967 8.19521C74.0514 8.19521 74.5969 7.93272 74.6879 7.49523H76.5065V7.58273ZM74.7788 5.6578C74.6879 4.60784 73.9604 4.34535 73.4149 4.34535C72.5965 4.34535 72.1418 4.87033 72.0509 5.6578H74.7788Z" fill="white"/>
  <path d="M83.6907 9.42007H81.963V5.57021C81.963 5.13273 81.9631 4.34526 80.8719 4.34526C80.1444 4.34526 79.5079 4.87024 79.5079 5.8327V9.50756H77.7803V3.12031H79.417V4.08277C79.6898 3.73278 80.1445 2.94531 81.4175 2.94531C82.6905 2.94531 83.6907 3.64529 83.6907 5.04523V9.42007Z" fill="white"/>
  <path d="M87.2366 3.12063H88.3277V4.25809H87.2366V7.75796C87.2366 8.10794 87.2366 8.28294 87.964 8.28294C88.0549 8.28294 88.2368 8.28294 88.3277 8.28294V9.50789C88.0549 9.50789 87.7822 9.50789 87.5094 9.50789H87.3275C85.7817 9.50789 85.5089 8.98291 85.5089 8.10794V4.25809H84.5996V3.03314H85.5089V1.2832H87.2366V3.12063Z" fill="white"/>
  <path d="M91.2374 3.12071V9.50797H89.5098V3.12071H91.2374ZM91.2374 2.33324H89.5098V0.758301H91.2374V2.33324Z" fill="white"/>
  <path d="M95.8752 9.59506C94.0566 9.59506 92.5107 8.5451 92.5107 6.27018C92.5107 3.99527 94.1475 2.94531 95.8752 2.94531C97.6938 2.94531 99.2396 3.99527 99.2396 6.27018C99.2396 8.5451 97.6938 9.59506 95.8752 9.59506ZM95.8752 4.34526C94.5112 4.34526 94.3293 5.48272 94.3293 6.27018C94.3293 7.05765 94.6021 8.19511 95.8752 8.19511C97.2391 8.19511 97.421 7.05765 97.421 6.27018C97.421 5.48272 97.2391 4.34526 95.8752 4.34526Z" fill="white"/>
  <path d="M106.423 9.42007H104.695V5.57021C104.695 5.13273 104.695 4.34526 103.604 4.34526C102.877 4.34526 102.24 4.87024 102.24 5.8327V9.50756H100.513V3.12031H102.149V4.08277C102.422 3.73278 102.877 2.94531 104.15 2.94531C105.423 2.94531 106.423 3.64529 106.423 5.04523V9.42007Z" fill="white"/>
  <path d="M119.426 9.42038H117.334L116.698 8.7204C116.152 9.24538 115.516 9.68287 114.152 9.68287C112.424 9.68287 111.333 8.54541 111.333 7.23296C111.333 6.44549 111.606 5.57052 113.061 4.69556L113.243 4.60806C112.879 4.17058 112.424 3.5581 112.424 2.85813C112.424 1.72067 113.424 0.845703 114.788 0.845703C115.789 0.845703 116.971 1.45818 116.971 2.85813C116.971 4.08308 115.879 4.69556 115.516 4.87055L116.789 6.35799C116.971 6.00801 117.153 5.57052 117.243 4.95805H118.789C118.698 6.0955 118.335 6.79548 117.789 7.58295L119.426 9.42038ZM114.788 2.15815C114.425 2.15815 114.061 2.42064 114.061 2.85813C114.061 3.12062 114.243 3.4706 114.697 3.90809C115.152 3.6456 115.516 3.29561 115.516 2.85813C115.516 2.33315 115.243 2.15815 114.788 2.15815ZM114.152 5.65802C113.424 6.183 113.061 6.44549 113.061 7.05797C113.061 7.40795 113.333 8.19542 114.334 8.19542C114.879 8.19542 115.425 7.84544 115.698 7.58295L114.152 5.65802Z" fill="white"/>
  <path d="M129.246 0.845703H131.156L128.155 9.42038H126.337L123.336 0.845703H125.336L127.246 7.32046L129.246 0.845703Z" fill="white"/>
  <path d="M134.066 3.12071V9.50797H132.338V3.12071H134.066ZM134.066 2.33324H132.338V0.758301H134.066V2.33324Z" fill="white"/>
  <path d="M139.431 5.04523C139.34 4.60775 139.249 4.17027 138.249 4.17027C137.34 4.17027 137.158 4.52025 137.158 4.78274C137.158 5.74521 141.25 5.04523 141.25 7.40764C141.25 9.24507 139.431 9.59506 138.34 9.59506C136.794 9.59506 135.248 9.07008 135.157 7.40764H136.976C136.976 7.93262 137.34 8.37011 138.431 8.37011C139.34 8.37011 139.522 7.93262 139.522 7.67013C139.522 6.62017 135.43 7.40764 135.43 5.04523C135.43 4.08277 136.067 2.94531 138.067 2.94531C139.34 2.94531 140.886 3.2953 141.068 5.04523H139.431Z" fill="white"/>
  <path d="M144.432 3.12071V9.50797H142.704V3.12071H144.432ZM144.432 2.33324H142.704V0.758301H144.432V2.33324Z" fill="white"/>
  <path d="M147.978 3.12063H149.069V4.25809H147.978V7.75796C147.978 8.10794 147.978 8.28294 148.705 8.28294C148.796 8.28294 148.978 8.28294 149.069 8.28294V9.50789C148.796 9.50789 148.523 9.50789 148.251 9.50789H148.069C146.523 9.50789 146.25 8.98291 146.25 8.10794V4.25809H145.341V3.03314H146.25V1.2832H147.978V3.12063Z" fill="white"/>
  <path d="M153.161 9.59506C151.343 9.59506 149.797 8.5451 149.797 6.27018C149.797 3.99527 151.434 2.94531 153.161 2.94531C154.98 2.94531 156.526 3.99527 156.526 6.27018C156.526 8.5451 154.98 9.59506 153.161 9.59506ZM153.161 4.34526C151.797 4.34526 151.615 5.48272 151.615 6.27018C151.615 7.05765 151.888 8.19511 153.161 8.19511C154.525 8.19511 154.707 7.05765 154.707 6.27018C154.798 5.48272 154.525 4.34526 153.161 4.34526Z" fill="white"/>
  <path d="M157.798 3.1207H159.435V4.25816C159.798 3.64568 160.162 3.0332 161.253 3.0332C161.344 3.0332 161.435 3.0332 161.617 3.0332V4.69564C161.435 4.69564 161.253 4.69564 161.162 4.69564C159.798 4.69564 159.526 5.48311 159.526 6.18308V9.50796H157.798V3.1207Z" fill="white"/>
  <path d="M166.346 5.04523C166.255 4.60775 166.164 4.17027 165.164 4.17027C164.255 4.17027 164.073 4.52025 164.073 4.78274C164.073 5.74521 168.165 5.04523 168.165 7.40764C168.165 9.24507 166.346 9.59506 165.255 9.59506C163.709 9.59506 162.163 9.07008 162.072 7.40764H163.891C163.891 7.93262 164.255 8.37011 165.346 8.37011C166.255 8.37011 166.437 7.93262 166.437 7.67013C166.437 6.62017 162.345 7.40764 162.345 5.04523C162.345 4.08277 162.982 2.94531 164.982 2.94531C166.255 2.94531 167.801 3.2953 167.983 5.04523H166.346Z" fill="white"/>
  <path d="M173.074 0.845703H177.439C179.621 0.845703 180.167 2.15815 180.167 3.03312C180.167 4.25807 179.439 4.60806 179.076 4.78305C180.167 5.22054 180.44 6.00801 180.44 6.88297C180.44 7.58295 180.167 8.19542 179.712 8.63291C179.167 9.07039 178.712 9.42038 176.893 9.42038H173.074V0.845703ZM174.893 7.93293H177.166C178.075 7.93293 178.621 7.58295 178.621 6.70798C178.621 5.92051 177.984 5.65802 177.257 5.65802H174.893V7.93293ZM174.893 4.25807H177.075C177.803 4.25807 178.348 3.99558 178.348 3.29561C178.348 2.59564 177.803 2.33315 176.984 2.33315H174.802V4.25807H174.893Z" fill="white"/>
  <path d="M187.442 9.42007H185.714V8.5451C185.35 9.24507 184.623 9.59506 183.714 9.59506C182.441 9.59506 181.44 8.89509 181.44 7.23265V3.03281H183.168V6.97016C183.168 7.93262 183.805 8.10762 184.259 8.10762C184.805 8.10762 185.623 7.75763 185.623 6.62017V2.94531H187.351V9.42007H187.442Z" fill="white"/>
  <path d="M188.715 3.1207H190.352V4.25816C190.715 3.64568 191.079 3.0332 192.17 3.0332C192.261 3.0332 192.352 3.0332 192.534 3.0332V4.69564C192.352 4.69564 192.17 4.69564 192.079 4.69564C190.715 4.69564 190.443 5.48311 190.443 6.18308V9.50796H188.715V3.1207Z" fill="white"/>
  <path d="M199.262 7.58273C198.808 9.07017 197.444 9.59515 196.353 9.59515C194.534 9.59515 193.079 8.72019 193.079 6.09529C193.079 5.30782 193.352 2.85791 196.262 2.85791C197.535 2.85791 199.353 3.47039 199.353 6.35778V6.62027H194.807C194.898 7.05775 194.989 8.19521 196.353 8.19521C196.807 8.19521 197.353 7.93272 197.444 7.49523H199.262V7.58273ZM197.535 5.6578C197.444 4.60784 196.716 4.34535 196.171 4.34535C195.352 4.34535 194.898 4.87033 194.807 5.6578H197.535Z" fill="white"/>
  <path d="M205.809 8.19511C205.809 8.98258 205.991 9.15757 206.173 9.15757V9.42007H204.263C204.172 9.15758 204.172 8.98258 204.081 8.6326C203.718 9.07008 203.081 9.59506 201.899 9.59506C200.899 9.59506 199.898 9.07008 199.898 7.75763C199.898 6.53268 200.717 5.9202 201.808 5.74521L203.354 5.48272C203.627 5.48272 203.99 5.30772 203.99 4.95774C203.99 4.25776 203.263 4.25776 202.808 4.25776C201.899 4.25776 201.808 4.78274 201.717 5.13273H200.262C200.444 3.2078 201.899 2.94531 203.263 2.94531C204.172 2.94531 205.9 3.2078 205.9 4.78274V8.19511H205.809ZM204.172 6.35768C203.99 6.44518 203.717 6.62017 202.99 6.70767C202.354 6.79517 201.808 6.97016 201.808 7.67013C201.808 8.28261 202.263 8.4576 202.626 8.4576C203.354 8.4576 204.172 8.02012 204.172 7.23265V6.35768Z" fill="white"/>
  <path d="M213.357 9.42007H211.72V8.5451C211.356 9.24507 210.629 9.59506 209.72 9.59506C208.447 9.59506 207.446 8.89509 207.446 7.23265V3.03281H209.174V6.97016C209.174 7.93262 209.81 8.10762 210.265 8.10762C210.811 8.10762 211.629 7.75763 211.629 6.62017V2.94531H213.357V9.42007Z" fill="white"/>
</svg>
